<svg version="1" xmlns="http://www.w3.org/2000/svg" width="453.333" height="453.333" viewBox="0 0 340.000000 340.000000"><path d="M0 170v170h340V0H0v170zM275.2 34.7c1.6 1.5 1.8 3.6 1.8 25.1 0 20.5-.2 23.8-1.7 25.4-1.5 1.7-6.2 1.8-107 1.8H63v53h82.8c91.1 0 90.7 0 102.5 6.2 3.5 1.8 9.3 6.3 13.3 10.3 8.4 8.3 12.8 16.7 14.5 27.6.6 4.1 1.3 8 1.5 8.6.3 1 6.1 1.3 25 1.3 21.6 0 25 .2 26.6 1.7 1.6 1.5 1.8 3.6 1.8 24.6 0 20-.2 23.3-1.7 24.9-1.5 1.6-3.7 1.8-26.5 1.8-19 0-24.9.3-25.2 1.2-.2.7-.9 4.6-1.5 8.7-1.7 11.2-6 19.2-15 28.1-4.7 4.7-9.7 8.6-13.3 10.3-12 5.7-11.1 5.7-99.7 5.7-74.4 0-81.6-.1-83.3-1.7-1.6-1.5-1.8-3.6-1.8-25.1 0-20.5.2-23.8 1.7-25.4 1.5-1.7 6.2-1.8 107-1.8H277v-53h-82.7c-90.6 0-90.5 0-102.1-5.9-7.2-3.6-16.8-12.3-21.2-19-4-6.3-7-14.9-7.8-22.6l-.7-6-24.9-.3c-21.5-.2-25.2-.5-26.8-1.9-1.6-1.5-1.8-3.7-1.8-24.8s.2-23.3 1.8-24.8c1.6-1.4 5.3-1.7 26.8-1.9l24.9-.3.6-5.5c1.4-13.3 7-24.2 17-33.6 7.2-6.7 13.1-10 22-12.4 7-1.8 11.6-1.9 89.3-1.9 74.9-.1 82.1 0 83.8 1.6z"/></svg>